<?xml version="1.0" standalone="no"?>
<!DOCTYPE svg PUBLIC "-//W3C//DTD SVG 20010904//EN"
 "http://www.w3.org/TR/2001/REC-SVG-20010904/DTD/svg10.dtd">
<svg version="1.0" xmlns="http://www.w3.org/2000/svg"
 width="2700.000000pt" height="2700.000000pt" viewBox="0 0 2700.000000 2700.000000"
 preserveAspectRatio="xMidYMid meet">
<metadata>
Created by potrace 1.14, written by Peter Selinger 2001-2017
</metadata>
<g transform="translate(0.000000,2700.000000) scale(0.100000,-0.100000)"
fill="#000000" stroke="none">
<path d="M21715 26149 c-2717 -74 -5344 -1032 -7480 -2727 -406 -323 -695
-582 -1091 -977 -556 -556 -1004 -1089 -1454 -1734 l-93 -134 26 -171 c64
-403 82 -642 82 -1076 0 -383 -8 -512 -51 -860 -22 -177 -73 -484 -90 -545
-17 -56 21 16 81 155 84 194 273 583 390 800 1306 2433 3454 4320 6025 5292
965 365 1955 592 2995 687 375 35 542 42 1113 48 l552 6 -2 621 -3 621 -365 1
c-201 0 -486 -2 -635 -7z"/>
<path d="M4287 25913 c-4 -3 -7 -5644 -7 -12535 l0 -12528 625 0 625 0 0 5910
0 5910 44 0 c25 0 129 -7 233 -15 1175 -95 2265 -348 3346 -777 98 -38 180
-68 182 -66 3 2 -4 74 -15 159 -28 227 -58 575 -70 819 -6 118 -13 256 -16
307 l-6 91 -161 57 c-216 75 -528 171 -777 240 -112 30 -205 57 -207 59 -2 2
64 43 146 90 715 413 1388 1005 1898 1669 728 946 1173 2027 1322 3207 37 293
45 448 45 820 0 458 -20 711 -89 1115 -271 1592 -1120 3028 -2392 4042 -1066
850 -2358 1343 -3727 1423 -196 11 -989 14 -999 3z m1402 -1298 c281 -41 632
-125 905 -216 443 -148 905 -375 1286 -631 1097 -739 1883 -1851 2204 -3114
118 -470 161 -821 161 -1329 0 -335 -8 -461 -46 -735 -159 -1149 -688 -2210
-1514 -3035 -389 -389 -819 -706 -1315 -968 -432 -228 -996 -421 -1495 -512
-176 -32 -333 -53 -340 -47 -3 3 -5 2390 -5 5304 l0 5298 26 0 c15 0 74 -7
133 -15z"/>
<path d="M10990 16282 c-349 -690 -780 -1277 -1338 -1824 l-191 -186 -10 -246
c-80 -1840 251 -3699 962 -5401 1022 -2447 2794 -4515 5072 -5917 190 -118
469 -277 475 -273 20 12 -72 720 -139 1075 -30 155 -94 459 -109 514 -6 23
-41 52 -157 134 -768 540 -1483 1185 -2081 1877 -1094 1268 -1880 2712 -2339
4300 -223 773 -354 1515 -422 2390 -22 290 -25 1199 -5 1480 54 747 150 1380
307 2015 25 101 44 184 43 186 -2 1 -32 -54 -68 -124z"/>
<path d="M10954 12363 c3 -27 17 -142 31 -258 42 -352 110 -738 196 -1120 47
-209 32 -186 220 -315 323 -221 748 -556 1088 -857 213 -189 705 -681 893
-893 382 -432 677 -815 983 -1275 908 -1368 1500 -2916 1734 -4540 88 -607
121 -1113 121 -1857 l0 -398 627 0 626 0 -6 548 c-8 655 -20 903 -68 1377 -99
984 -327 1988 -666 2925 -1016 2814 -3007 5157 -5635 6633 -75 42 -139 77
-143 77 -4 0 -4 -21 -1 -47z"/>
<path d="M17590 2992 c0 -15 9 -110 19 -212 28 -262 50 -573 56 -800 3 -107 8
-228 11 -268 7 -88 -35 -65 389 -207 1139 -383 2253 -589 3480 -645 121 -5
435 -10 698 -10 l477 0 -2 623 -3 622 -605 6 c-599 7 -806 16 -1175 54 -937
98 -1859 307 -2712 616 -166 61 -267 100 -585 229 l-48 20 0 -28z"/>
</g>
</svg>
